<svg width="292" height="212" viewBox="0 0 292 212" fill="none" xmlns="http://www.w3.org/2000/svg">
<g clip-path="url(#clip0)">
<path opacity="0.1" d="M252.046 121.616C242.813 136.767 244.446 157.346 248.402 173.572C249.726 179.006 251.255 184.735 250.078 190.823C248.637 198.267 243.477 204.135 238.265 207.493C228.762 213.619 217.943 213.494 210.107 207.17C203.325 201.704 198.885 192.141 191.967 186.971C180.377 178.318 164.413 183.662 150.527 191.861C140.701 197.659 129.888 204.996 120.853 200.908C114.496 198.031 110.565 189.853 108.743 180.943C107.865 176.642 107.346 171.942 105.307 168.669C104.094 166.724 102.421 165.425 100.685 164.363C84.8438 154.672 63.3222 162.923 48.0548 151.939C37.7421 144.52 31.9237 129.135 30.0637 112.664C28.2037 96.1927 29.8498 78.5478 31.9021 61.1745C33.3695 48.8299 35.3405 35.6104 41.741 25.5451C48.5096 14.8984 59.1337 10.1115 68.3445 11.0651C77.5553 12.0187 85.5315 17.9492 92.3976 25.1919C100.98 34.2439 108.702 45.8198 119.846 48.7022C127.427 50.6664 135.744 48.3191 143.82 46.9771C157.323 44.7331 170.624 45.3036 183.826 46.067C196.467 46.7978 209.187 47.7269 220.951 52.2149C229.276 55.3907 235.647 62.0493 243.409 66.3634C248.469 69.1752 254.19 69.5093 258.901 73.2693C264.703 77.8876 269.704 86.4724 267.327 97.3419C265.066 107.679 256.944 113.577 252.046 121.616Z" fill="#E67E22"/>
<path d="M79.6807 75.334C79.6807 75.334 39.843 66.396 90.5322 14.1024C90.5322 14.1024 112.381 34.8824 104.367 60.7127C101.145 71.0986 90.7759 77.51 80.2709 75.4562L79.6807 75.334Z" fill="#E67E22"/>
<path opacity="0.4" d="M79.6807 75.334C78.8062 75.1384 40.6932 65.5131 90.5322 14.1024C90.5322 14.1024 112.381 34.8824 104.367 60.7127C101.145 71.0986 90.7759 77.51 80.2709 75.4562L79.6807 75.334Z" fill="white"/>
<path d="M80.2086 75.6328C80.2086 75.6328 101.251 43.8257 90.5376 14.1051" stroke="#535461" stroke-miterlimit="10"/>
<path d="M243.566 106.22C243.566 106.22 236.7 78.4799 247.105 58.7295C251.475 50.4409 253.21 40.9976 251.751 31.7364C251.05 27.3433 249.95 23.0238 248.464 18.8321" stroke="#535461" stroke-width="2" stroke-miterlimit="10"/>
<path d="M254.948 6.34621C254.805 9.70405 248.331 19.1772 248.331 19.1772C248.331 19.1772 242.689 9.18244 242.832 5.82461C242.932 4.23472 243.649 2.74738 244.829 1.68197C246.009 0.616553 247.559 0.0580253 249.145 0.126311C250.731 0.194597 252.228 0.884252 253.313 2.04719C254.398 3.21013 254.985 4.75361 254.948 6.34621V6.34621Z" fill="#E67E22"/>
<path d="M264.17 25.3712C262.231 28.1124 251.664 32.5351 251.664 32.5351C251.664 32.5351 252.341 21.068 254.28 18.3268C254.733 17.6559 255.315 17.0826 255.991 16.6405C256.668 16.1983 257.426 15.8962 258.221 15.752C259.016 15.6078 259.831 15.6243 260.619 15.8005C261.408 15.9768 262.153 16.3092 262.812 16.7784C263.47 17.2475 264.029 17.8439 264.454 18.5326C264.88 19.2212 265.164 19.9883 265.291 20.7887C265.417 21.5891 265.383 22.4067 265.19 23.1936C264.997 23.9806 264.649 24.7209 264.167 25.3712H264.17Z" fill="#E67E22"/>
<path d="M262.375 57.1294C259.324 58.5122 247.977 56.98 247.977 56.98C247.977 56.98 254.331 47.4253 257.382 46.0398C258.842 45.4116 260.489 45.3831 261.97 45.9604C263.45 46.5377 264.646 47.6748 265.3 49.1273C265.954 50.5797 266.014 52.2316 265.467 53.728C264.92 55.2243 263.81 56.4456 262.375 57.1294V57.1294Z" fill="#E67E22"/>
<path d="M255.625 80.8516C252.85 82.7315 241.408 83.1444 241.408 83.1444C241.408 83.1444 246.062 72.6499 248.838 70.7672C250.171 69.8982 251.79 69.5891 253.348 69.9065C254.906 70.2239 256.278 71.1424 257.167 72.4643C258.057 73.7862 258.394 75.4057 258.106 76.9744C257.817 78.543 256.927 79.9353 255.625 80.8516Z" fill="#E67E22"/>
<path d="M238.917 32.6492C241.216 35.0943 252.295 37.9957 252.295 37.9957C252.295 37.9957 250.032 26.735 247.733 24.2927C246.62 23.1547 245.107 22.5001 243.519 22.4698C241.93 22.4395 240.394 23.0358 239.239 24.1305C238.084 25.2253 237.403 26.731 237.343 28.324C237.283 29.917 237.848 31.4701 238.917 32.6492V32.6492Z" fill="#E67E22"/>
<path d="M231.374 60.4818C234.299 62.1118 245.724 61.5685 245.724 61.5685C245.724 61.5685 240.22 51.5004 237.293 49.8622C235.893 49.1202 234.259 48.9571 232.741 49.4075C231.223 49.858 229.94 50.8864 229.167 52.273C228.395 53.6596 228.193 55.2944 228.605 56.8283C229.018 58.3622 230.011 59.6734 231.374 60.4818V60.4818Z" fill="#E67E22"/>
<path d="M227.744 88.5534C230.348 90.6643 241.712 92.0579 241.712 92.0579C241.712 92.0579 237.97 81.1912 235.365 79.0884C234.111 78.1121 232.525 77.6682 230.948 77.8522C229.371 78.0362 227.929 78.8333 226.931 80.0724C225.933 81.3115 225.459 82.8938 225.611 84.4795C225.763 86.0652 226.529 87.5278 227.744 88.5534V88.5534Z" fill="#E67E22"/>
<path d="M254.948 6.34621C254.805 9.70405 248.331 19.1772 248.331 19.1772C248.331 19.1772 242.689 9.18244 242.832 5.82461C242.932 4.23472 243.649 2.74738 244.829 1.68197C246.009 0.616553 247.559 0.0580253 249.145 0.126311C250.731 0.194597 252.228 0.884252 253.313 2.04719C254.398 3.21013 254.985 4.75361 254.948 6.34621V6.34621Z" fill="#FC6681"/>
<path d="M264.17 25.3712C262.231 28.1124 251.664 32.5351 251.664 32.5351C251.664 32.5351 252.341 21.068 254.28 18.3268C254.733 17.6559 255.315 17.0826 255.991 16.6405C256.668 16.1983 257.426 15.8962 258.221 15.752C259.016 15.6078 259.831 15.6243 260.619 15.8005C261.408 15.9768 262.153 16.3092 262.812 16.7784C263.47 17.2475 264.029 17.8439 264.454 18.5326C264.88 19.2212 265.164 19.9883 265.291 20.7887C265.417 21.5891 265.383 22.4067 265.19 23.1936C264.997 23.9806 264.649 24.7209 264.167 25.3712H264.17Z" fill="#FC6681"/>
<path d="M262.375 57.1294C259.324 58.5122 247.977 56.98 247.977 56.98C247.977 56.98 254.331 47.4253 257.382 46.0398C258.842 45.4116 260.489 45.3831 261.97 45.9604C263.45 46.5377 264.646 47.6748 265.3 49.1273C265.954 50.5797 266.014 52.2316 265.467 53.728C264.92 55.2243 263.81 56.4456 262.375 57.1294V57.1294Z" fill="#FC6681"/>
<path d="M255.625 80.8516C252.85 82.7315 241.408 83.1444 241.408 83.1444C241.408 83.1444 246.062 72.6499 248.838 70.7672C250.171 69.8982 251.79 69.5891 253.348 69.9065C254.906 70.2239 256.278 71.1424 257.167 72.4643C258.057 73.7862 258.394 75.4057 258.106 76.9744C257.817 78.543 256.927 79.9353 255.625 80.8516Z" fill="#FC6681"/>
<path d="M238.917 32.6492C241.216 35.0943 252.295 37.9957 252.295 37.9957C252.295 37.9957 250.032 26.735 247.733 24.2927C246.62 23.1547 245.107 22.5001 243.519 22.4698C241.93 22.4395 240.394 23.0358 239.239 24.1305C238.084 25.2253 237.403 26.731 237.343 28.324C237.283 29.917 237.848 31.4701 238.917 32.6492V32.6492Z" fill="#FC6681"/>
<path d="M231.374 60.4818C234.299 62.1118 245.724 61.5685 245.724 61.5685C245.724 61.5685 240.22 51.5004 237.293 49.8622C235.893 49.1202 234.259 48.9571 232.741 49.4075C231.223 49.858 229.94 50.8864 229.167 52.273C228.395 53.6596 228.193 55.2944 228.605 56.8283C229.018 58.3622 230.011 59.6734 231.374 60.4818V60.4818Z" fill="#FC6681"/>
<path d="M227.744 88.5534C230.348 90.6643 241.712 92.0579 241.712 92.0579C241.712 92.0579 237.97 81.1912 235.365 79.0884C234.111 78.1121 232.525 77.6682 230.948 77.8522C229.371 78.0362 227.929 78.8333 226.931 80.0724C225.933 81.3115 225.459 82.8938 225.611 84.4795C225.763 86.0652 226.529 87.5278 227.744 88.5534V88.5534Z" fill="#FC6681"/>
<path d="M218.43 88.3035C218.43 88.3035 247.227 64.0896 253.627 51.878C260.028 39.6665 268.185 29.1474 268.185 29.1474" stroke="#535461" stroke-width="2" stroke-miterlimit="10"/>
<path d="M264.408 56.4393L251.954 53.6194C251.954 53.6194 254.889 66.8062 264.408 56.4393Z" fill="#E67E22"/>
<path d="M245.364 42.9727L252.533 53.7471C252.533 53.7471 238.525 54.7686 245.364 42.9727Z" fill="#E67E22"/>
<path d="M269.309 46.3115L257.921 44.3066C257.921 44.3066 265.077 55.225 269.309 46.3115Z" fill="#E67E22"/>
<path d="M252.468 36.6863L258.089 44.0594C258.089 44.0594 248.139 44.9994 252.468 36.6863Z" fill="#E67E22"/>
<path d="M263.813 35.2165C263.813 35.2165 273.519 35.681 274.642 36.6102C275.766 37.5393 273.197 42.989 269.498 42.1006C265.8 41.2122 263.813 35.2165 263.813 35.2165Z" fill="#E67E22"/>
<path d="M259.936 26.5204C259.936 26.5204 263.896 33.7631 263.748 35.1405C263.599 36.5178 257.713 38.0663 256.521 32.8448C255.33 27.6233 259.936 26.5204 259.936 26.5204Z" fill="#E67E22"/>
<path d="M272.924 31.2166C273.376 29.7862 272.586 28.2595 271.16 27.8065C269.735 27.3536 268.213 28.146 267.762 29.5764C267.311 31.0068 268.1 32.5335 269.526 32.9864C270.951 33.4394 272.473 32.647 272.924 31.2166Z" fill="#FFD037"/>
<path d="M268.688 28.4458C269.139 27.0154 268.349 25.4887 266.924 25.0357C265.498 24.5828 263.977 25.3752 263.525 26.8056C263.074 28.236 263.864 29.7627 265.289 30.2157C266.715 30.6686 268.236 29.8762 268.688 28.4458Z" fill="#FFD037"/>
<path d="M89.0377 94.5192C89.0377 94.5192 100.68 85.8258 86.0594 55.3988C86.0594 55.3988 66.5657 31.2203 86.0594 8.40002C86.0594 8.40002 43.5523 9.4867 44.3645 49.1504C45.1767 88.8142 65.6181 94.5192 65.6181 94.5192H89.0377Z" fill="#E67E22"/>
<path d="M78.1645 94.5192C78.1645 94.5192 75.2323 73.6007 67.3807 60.8322C65.8299 58.2498 64.7148 55.4281 64.0803 52.4811C61.4567 40.8998 65.1984 28.7888 73.6755 20.5002L86.0622 8.39186" stroke="#535461" stroke-width="2" stroke-miterlimit="10"/>
<path d="M113.283 24.6866C113.283 24.6866 115.958 28.1966 112.048 33.4941C108.139 38.7917 104.917 43.2742 106.219 46.5669C106.219 46.5669 112.116 36.727 116.916 36.5885C121.717 36.4499 118.563 30.6036 113.283 24.6866Z" fill="#E67E22"/>
<path opacity="0.1" d="M113.283 24.6866C113.514 25.0258 113.697 25.3963 113.824 25.7869C118.508 31.3072 121.002 36.4608 116.502 36.5912C112.308 36.7107 107.278 44.2359 106.073 46.1349C106.113 46.2815 106.161 46.4257 106.217 46.5669C106.217 46.5669 112.113 36.727 116.914 36.5885C121.714 36.4499 118.563 30.6036 113.283 24.6866Z" fill="black"/>
<path d="M118.254 29.1583C118.254 30.3944 118.116 31.3941 117.945 31.3941C117.775 31.3941 117.637 30.3917 117.637 29.1583C117.637 27.9249 117.81 28.5036 117.98 28.5036C118.151 28.5036 118.254 27.9249 118.254 29.1583Z" fill="#FFD037"/>
<path d="M119.96 30.6335C118.877 31.2257 117.937 31.5816 117.856 31.4322C117.775 31.2827 118.584 30.6824 119.665 30.0901C120.745 29.4979 120.32 29.9298 120.401 30.0901C120.482 30.2504 121.04 30.0412 119.96 30.6335Z" fill="#FFD037"/>
<path d="M99.1609 24.6866C99.1609 24.6866 96.4859 28.1966 100.395 33.4941C104.305 38.7917 107.527 43.2742 106.225 46.5669C106.225 46.5669 100.328 36.727 95.5275 36.5885C90.7271 36.4499 93.8759 30.6036 99.1609 24.6866Z" fill="#E67E22"/>
<path opacity="0.1" d="M99.1609 24.6866C98.9294 25.0258 98.7471 25.3963 98.6194 25.7869C93.9355 31.3072 91.4419 36.4608 95.9417 36.5912C100.136 36.7107 105.166 44.2359 106.371 46.1349C106.331 46.2815 106.283 46.4257 106.227 46.5669C106.227 46.5669 100.322 36.7243 95.522 36.5912C90.7217 36.4581 93.8759 30.6036 99.1609 24.6866Z" fill="black"/>
<path d="M94.1845 29.1583C94.1845 30.3944 94.3226 31.3941 94.4932 31.3941C94.6638 31.3941 94.8018 30.3917 94.8018 29.1583C94.8018 27.9249 94.6286 28.5036 94.458 28.5036C94.2874 28.5036 94.1845 27.9249 94.1845 29.1583Z" fill="#FFD037"/>
<path d="M92.4788 30.6335C93.5618 31.2257 94.5013 31.5816 94.5825 31.4322C94.6638 31.2827 93.8542 30.6824 92.774 30.0901C91.6937 29.4979 92.1188 29.9298 92.0375 30.0901C91.9563 30.2504 91.3986 30.0412 92.4788 30.6335Z" fill="#FFD037"/>
<path d="M292 175.441L268.28 70.7183H259.467C259.115 66.7166 258.88 62.8399 258.79 59.1886C258.79 59.1886 226.842 66.2031 201.365 45.9094C175.888 25.6157 145.935 47.6644 145.935 47.6644L145.819 47.5802V47.5394V47.591C143.739 46.1132 115.046 26.3818 90.5132 45.9257C65.0468 66.2194 33.0879 59.2049 33.0879 59.2049C32.9986 62.9023 32.7603 66.8117 32.4002 70.8514H24.2237L0 175.819C0 175.819 98.4705 179.519 132.977 176.107C134.214 178.731 139.548 180.704 145.938 180.704C153.118 180.704 158.958 178.212 159.161 175.107C186.022 177.158 243.821 180.437 292 175.441Z" fill="url(#paint0_linear)"/>
<path d="M26.7606 71.6392L3.0459 174.423C3.0459 174.423 133.592 179.329 144.105 172.461C144.105 172.461 225.147 180.679 288.954 174.056L265.729 71.5197L26.7606 71.6392Z" fill="#E2E2EC"/>
<path opacity="0.1" d="M34.8288 75.19L12.7197 171.016C12.7197 171.016 134.431 175.591 144.232 169.188C144.232 169.188 219.789 176.849 279.278 170.674L257.618 75.0759L34.8288 75.19Z" fill="black"/>
<path d="M256.44 60.2346C256.44 60.2346 225.147 67.1024 200.212 47.2325C175.276 27.3625 145.938 48.9494 145.938 48.9494C145.938 48.9494 116.602 27.3625 91.6666 47.2325C66.7308 67.1024 35.438 60.2346 35.438 60.2346C34.4525 100.219 15.882 164.979 15.882 164.979C15.882 164.979 50.107 174.3 95.3352 155.414C140.563 136.528 145.94 162.037 145.94 162.037C145.94 162.037 151.317 136.525 196.546 155.414C241.774 174.303 275.999 164.979 275.999 164.979C275.999 164.979 257.418 100.219 256.44 60.2346Z" fill="#F1F2FB"/>
<path opacity="0.1" d="M85.5559 162.779C85.5559 162.779 126.872 153.458 145.932 167.194C145.932 167.194 164.267 150.513 206.804 163.515" fill="black"/>
<path d="M145.938 179.207C153.094 179.207 158.896 176.681 158.896 173.564C158.896 170.448 153.094 167.922 145.938 167.922C138.781 167.922 132.98 170.448 132.98 173.564C132.98 176.681 138.781 179.207 145.938 179.207Z" fill="#E8EAF8"/>
<path opacity="0.1" d="M145.816 48.8272C145.816 48.8272 155.105 96.171 146.06 162.893Z" fill="black"/>
<path opacity="0.1" d="M44.3889 75.0759C44.3889 75.0759 63.8474 79.6128 80.6905 75.0759C97.5337 70.539 128.458 55.6977 138.63 75.0759" stroke="black" stroke-width="4" stroke-miterlimit="10"/>
<path opacity="0.1" d="M44.3889 83.4161C44.3889 83.4161 63.8474 87.953 80.6905 83.4161C97.5337 78.8792 134.003 79.1237 138.63 83.4161" stroke="black" stroke-width="4" stroke-miterlimit="10"/>
<path opacity="0.1" d="M44.3889 98.1216C44.3889 98.1216 63.8474 102.658 80.6905 98.1216C97.5337 93.5847 128.458 78.7434 138.63 98.1216" stroke="black" stroke-width="4" stroke-miterlimit="10"/>
<path opacity="0.1" d="M44.3889 106.473C44.3889 106.473 63.8474 111.01 80.6905 106.473C97.5337 101.936 134.003 102.18 138.63 106.473" stroke="black" stroke-width="4" stroke-miterlimit="10"/>
<path opacity="0.1" d="M247.489 75.0759C247.489 75.0759 228.031 79.6128 211.188 75.0759C194.344 70.539 163.42 55.6977 153.248 75.0759" stroke="black" stroke-width="4" stroke-miterlimit="10"/>
<path opacity="0.1" d="M247.489 83.4161C247.489 83.4161 228.031 87.953 211.188 83.4161C194.344 78.8792 157.875 79.1237 153.248 83.4161" stroke="black" stroke-width="4" stroke-miterlimit="10"/>
<path opacity="0.1" d="M247.489 98.1216C247.489 98.1216 228.031 102.658 211.188 98.1216C194.344 93.5847 163.42 78.7434 153.248 98.1216" stroke="black" stroke-width="4" stroke-miterlimit="10"/>
<path opacity="0.1" d="M247.489 106.473C247.489 106.473 228.031 111.01 211.188 106.473C194.344 101.936 157.875 102.18 153.248 106.473" stroke="black" stroke-width="4" stroke-miterlimit="10"/>
<path d="M247.885 194.779C248.697 194.157 249.468 193.421 249.704 192.532C249.825 192.06 249.76 191.56 249.524 191.134C249.288 190.709 248.898 190.39 248.434 190.245C247.267 189.881 246.022 190.541 245.074 191.209C244.127 191.877 243.046 192.641 241.809 192.5C243.09 191.57 243.704 190.055 243.347 188.696C243.287 188.4 243.137 188.13 242.919 187.922C242.272 187.354 241.097 187.599 240.323 188.044C237.856 189.465 237.168 192.206 237.155 194.676C236.906 193.785 237.117 192.858 237.109 191.943C237.101 191.027 236.798 190.017 235.855 189.525C235.253 189.264 234.6 189.138 233.944 189.158C232.837 189.125 231.599 189.215 230.844 189.881C229.904 190.696 230.148 192.089 230.966 192.997C231.783 193.904 233.029 194.475 234.174 195.102C235.048 195.58 235.931 196.137 236.467 196.892C236.536 196.993 236.593 197.1 236.638 197.213H243.588C245.115 196.583 246.558 195.765 247.885 194.779V194.779Z" fill="#E67E22"/>
<path d="M199.83 96.9507C199.83 96.9507 199.897 97.3419 200.011 98.0374C199.952 98.146 199.892 98.2547 199.83 98.3606C197.61 102.11 197.269 107.51 197.477 111.944C197.672 115.52 198.296 119.059 199.337 122.485C200.607 126.937 201.245 131.546 201.232 136.177C202.111 137.13 203.167 137.902 204.34 138.448C204.4 138.63 204.462 138.815 204.516 138.992C205.54 142.413 206.231 145.926 206.582 149.481L207.281 158.353C207.281 158.353 212.633 178.435 214.261 182.171C215.419 184.828 215.165 190.321 214.921 193.266C214.225 195.246 213.378 197.134 212.631 197.341C211.277 197.726 209.923 200.997 211.894 202.641C212.042 202.764 212.201 202.873 212.368 202.967L212.447 203.01L212.59 203.084L212.801 203.179L212.91 203.22L213.134 203.296L213.232 203.326C213.337 203.355 213.446 203.385 213.562 203.413C214.934 203.683 216.358 203.457 217.58 202.774C219.064 202.551 220.382 201.753 221.37 200.946L221.343 202.361H222.968L222.892 199.533C223.184 199.204 223.347 198.99 223.347 198.99C223.347 198.99 223.396 197.281 223.582 195.292L223.463 201.674H225.088L224.649 189.897C224.731 189.721 224.84 189.559 224.971 189.416C226.325 188.058 223.986 183.676 222.776 182.945C223.317 180.065 225.383 175.906 227.765 167.932C231.255 156.251 226.834 144.816 226.834 144.816V135.851C228.006 135.346 228.697 135.001 228.697 135.001C228.697 135.001 227.072 125.427 228.697 118.657C229.75 114.28 230.023 110.393 229.144 106.674C230.313 102.631 231.258 99.5098 231.258 99.5098L232.883 82.6989C233.297 80.1751 233.576 78.0153 233.754 76.1788C233.784 75.9506 233.806 75.7197 233.817 75.4915C234.114 72.0712 234.049 69.7865 233.855 68.2923C233.949 67.6075 233.982 66.9155 233.952 66.2249C233.99 65.8703 234.004 65.5137 233.995 65.1572C234.228 64.8855 234.456 64.6139 234.672 64.3422C235.249 63.6238 235.738 62.8396 236.132 62.0058C237.921 58.6181 237.973 54.4806 235.474 51.4949C233.936 49.6557 233.457 47.6753 232.127 45.7165C230.912 43.9235 230.681 41.7746 230.389 39.7099C230.027 37.1435 229.53 34.598 228.9 32.0842C228.713 31.3452 227.69 30.8915 227.181 30.2776C226.198 29.0904 223.328 29.1311 221.674 28.8676C218.896 28.4248 215.888 28.0118 213.359 29.1067C211.599 29.8701 210.335 31.2583 208.959 32.4835C207.478 33.8011 204.446 34.4368 203.975 36.0152C203.555 36.6183 203.534 37.3736 204.246 38.3842C204.933 39.3568 206.016 40.0522 207.026 40.7803C207.156 40.8727 207.278 40.9705 207.405 41.052C207.063 43.1485 207.4 45.2999 208.368 47.1896C209.335 49.0793 210.882 50.6075 212.78 51.5493C212.753 51.7259 212.723 51.8997 212.69 52.0709C212.393 53.5942 211.984 55.0934 211.466 56.5562C211.166 57.4581 207.69 59.0338 205.239 60.0444C204.956 59.7524 204.618 59.519 204.246 59.3571C202.383 58.8898 196.102 62.3916 195.636 63.5598C195.506 63.8858 195.847 64.7877 196.402 65.9233C196.439 66.4407 196.523 66.9537 196.654 67.4555C196.516 69.8462 196.765 73.7039 197.964 79.9061L199.83 96.9507ZM225.957 99.5777C225.87 99.412 225.781 99.2436 225.686 99.0697C223.1 93.8238 221.565 85.3422 225.269 80.2838C225.599 80.3191 225.93 80.3517 226.26 80.3734C226.479 87.2575 226.352 98.5753 226.352 98.5753C226.352 98.5753 226.206 98.9556 225.957 99.5777ZM216.727 139.562C217.252 142.211 217.87 145.289 218.446 148.087C219.132 151.345 219.086 154.716 218.311 157.954L216.123 151.369L215.614 139.782L215.582 139.307C215.934 139.247 216.283 139.183 216.63 139.114L216.727 139.562Z" fill="url(#paint1_linear)"/>
<path d="M218.417 147.582C219.092 150.789 219.047 154.107 218.284 157.294C218.147 157.9 217.966 158.494 217.742 159.073L218.36 184.257L218.43 187.112C219.002 187.233 219.581 187.318 220.163 187.368C220.703 187.424 221.247 187.424 221.787 187.368C222.329 187.3 222.805 187.137 223.06 186.824C223.314 186.512 223.369 186.009 223.008 185.279C222.612 184.475 222.459 183.574 222.567 182.684C222.589 182.434 222.629 182.171 222.678 181.899C223.22 179.066 225.242 174.969 227.589 167.123C231.025 155.631 226.674 144.371 226.674 144.371V133.792L215.452 132.643C215.452 132.643 215.993 135.49 216.738 139.19C217.242 141.798 217.848 144.827 218.417 147.582Z" fill="#FDC2CC"/>
<path opacity="0.1" d="M218.417 147.582C219.092 150.789 219.047 154.107 218.284 157.294C218.147 157.9 217.966 158.494 217.742 159.073L218.36 184.257L218.43 187.112C219.002 187.233 219.581 187.318 220.163 187.368C220.703 187.424 221.247 187.424 221.787 187.368C222.329 187.3 222.805 187.137 223.06 186.824C223.314 186.512 223.369 186.009 223.008 185.279C222.612 184.475 222.459 183.574 222.567 182.684C222.589 182.434 222.629 182.171 222.678 181.899C223.22 179.066 225.242 174.969 227.589 167.123C231.025 155.631 226.674 144.371 226.674 144.371V133.792L215.452 132.643C215.452 132.643 215.993 135.49 216.738 139.19C217.242 141.798 217.848 144.827 218.417 147.582Z" fill="black"/>
<path d="M202.84 133.792C203.581 135.357 204.203 136.976 204.701 138.636C205.708 142.003 206.389 145.46 206.734 148.959L207.422 157.693C207.422 157.693 212.69 177.457 214.293 181.136C215.433 183.752 215.184 189.158 214.943 192.062C214.845 193.241 214.751 194.007 214.751 194.007L217.087 191.136L220.149 187.368L221.546 185.648L221.852 185.273C221.483 184.502 221.184 183.699 220.959 182.874C220.959 182.874 220.959 182.874 220.959 182.874C220.25 180.358 219.783 177.779 219.565 175.172C218.877 168.049 218.649 158.394 218.649 158.394L218.287 157.307L216.121 150.812L215.62 139.402L215.433 135.177L202.84 133.792Z" fill="#FDC2CC"/>
<path d="M220.558 183.369C219.323 184.984 218.399 186.817 217.834 188.772C217.106 191.258 215.825 195.078 214.751 195.385C213.148 195.844 211.545 200.44 215.666 201.361C219.787 202.282 223.225 197.683 223.225 197.683C223.225 197.683 223.455 189.639 224.828 188.262C226.2 186.884 223.683 182.285 222.537 181.826C222.08 181.638 221.305 182.399 220.558 183.369Z" fill="#5F5D7E"/>
<path opacity="0.1" d="M214.293 200.671C215.37 200.898 216.491 200.796 217.51 200.378C218.764 199.874 219.852 199.025 220.648 197.929C221.444 196.833 221.916 195.534 222.009 194.181C222.204 191.72 222.616 188.411 223.452 187.571C224.535 186.485 223.182 183.388 222.018 181.907C222.093 181.857 222.178 181.823 222.267 181.809C222.356 181.795 222.448 181.801 222.535 181.826C223.68 182.285 226.201 186.881 224.825 188.262C223.45 189.642 223.222 197.683 223.222 197.683C223.222 197.683 219.792 202.28 215.668 201.356C215.069 201.24 214.506 200.98 214.028 200.598C214.114 200.625 214.201 200.65 214.293 200.671Z" fill="black"/>
<path d="M224.503 188.454L224.944 200.326H223.341L223.563 188.463C223.57 188.343 223.623 188.231 223.711 188.15C223.799 188.069 223.915 188.026 224.035 188.031C224.152 188.027 224.266 188.069 224.354 188.148C224.441 188.227 224.495 188.337 224.503 188.454V188.454Z" fill="#5F5D7E"/>
<path opacity="0.15" d="M224.503 188.454L224.944 200.326H223.341L223.563 188.463C223.57 188.343 223.623 188.231 223.711 188.15C223.799 188.069 223.915 188.026 224.035 188.031C224.152 188.027 224.266 188.069 224.354 188.148C224.441 188.227 224.495 188.337 224.503 188.454V188.454Z" fill="black"/>
<path d="M218.498 184.059C217.263 185.674 216.339 187.507 215.774 189.462C215.046 191.948 213.765 195.768 212.69 196.075C211.087 196.534 209.485 201.13 213.605 202.051C217.726 202.972 221.165 198.368 221.165 198.368C221.165 198.368 221.395 190.323 222.767 188.946C224.14 187.569 221.622 182.969 220.477 182.51C220.014 182.339 219.245 183.089 218.498 184.059Z" fill="#5F5D7E"/>
<path opacity="0.1" d="M212.233 201.356C213.31 201.582 214.43 201.48 215.449 201.063C216.704 200.559 217.792 199.71 218.588 198.614C219.384 197.518 219.855 196.219 219.949 194.866C220.144 192.404 220.555 189.096 221.392 188.256C222.475 187.169 221.121 184.072 219.957 182.592C220.032 182.541 220.117 182.508 220.207 182.494C220.296 182.48 220.387 182.485 220.474 182.51C221.619 182.969 224.14 187.566 222.765 188.946C221.389 190.326 221.165 198.368 221.165 198.368C221.165 198.368 217.729 202.964 213.605 202.046C213.006 201.93 212.443 201.67 211.965 201.288C212.062 201.315 212.141 201.34 212.233 201.356Z" fill="black"/>
<path d="M222.44 189.131L222.881 201.003H221.268L221.49 189.139C221.496 189.019 221.549 188.907 221.637 188.826C221.725 188.745 221.841 188.703 221.961 188.707V188.707C222.08 188.7 222.197 188.741 222.287 188.82C222.377 188.9 222.431 189.011 222.44 189.131V189.131Z" fill="#5F5D7E"/>
<path opacity="0.15" d="M222.44 189.131L222.881 201.003H221.268L221.49 189.139C221.496 189.019 221.549 188.907 221.637 188.826C221.725 188.745 221.841 188.703 221.961 188.707V188.707C222.08 188.7 222.197 188.741 222.287 188.82C222.377 188.9 222.431 189.011 222.44 189.131V189.131Z" fill="black"/>
<path d="M203.071 61.8591L212.233 76.3391L222.998 77.7192C222.998 77.7192 229.639 64.6193 229.412 63.9293C229.184 63.2392 225.746 61.8619 222.54 59.3326C219.334 56.8034 223.228 46.2327 223.228 46.2327L212.693 47.151C212.734 47.2922 212.774 47.4226 212.804 47.5802C213.224 49.3651 213.075 51.3455 212.753 53.0869C212.459 54.5836 212.055 56.0564 211.545 57.4934C211.087 58.8708 203.071 61.8591 203.071 61.8591Z" fill="#FDC2CC"/>
<path opacity="0.1" d="M215.438 132.643C215.438 132.643 215.98 135.49 216.724 139.19C220.134 138.462 223.464 137.395 226.663 136.006V133.792L215.438 132.643Z" fill="black"/>
<path opacity="0.1" d="M202.84 133.792C203.581 135.357 204.203 136.976 204.701 138.636C207.887 140.078 211.851 140.037 215.622 139.394L215.436 135.169L202.84 133.792Z" fill="black"/>
<path d="M200.092 98.6296C197.907 102.322 197.572 107.633 197.778 112.012C197.969 115.531 198.584 119.014 199.608 122.384C200.859 126.766 201.488 131.304 201.476 135.862C209.263 144.365 228.502 134.713 228.502 134.713C228.502 134.713 226.899 125.291 228.502 118.624C229.617 113.99 229.856 109.907 228.724 105.995C228.203 104.207 227.435 102.501 226.441 100.928C226.138 100.444 225.843 99.9092 225.559 99.3359C222.905 93.9515 221.373 85.1059 225.64 80.2267C226.084 79.7189 226.583 79.2632 227.129 78.8684C230.849 76.1653 232.544 73.1633 233.259 70.6232C233.706 69.045 233.798 67.3869 233.53 65.7685C233.072 63.2392 226.658 60.9409 226.658 60.9409C226.888 68.5259 217.269 74.959 217.269 74.959C217.269 74.959 206.274 60.71 204.443 60.2509C202.613 59.7917 196.427 63.2392 195.969 64.3884C195.511 65.5375 201.008 74.0408 201.008 74.0408C201.008 74.0408 204.446 91.2755 200.092 98.6296Z" fill="#D39999"/>
<path opacity="0.1" d="M227.121 78.8657C230.841 76.1625 232.536 73.1606 233.251 70.6205C233.072 66.8171 232.168 66.2276 232.168 66.2276C232.168 66.2276 224.6 73.579 225.288 76.1164C225.445 76.7005 225.559 78.2272 225.632 80.2349C226.075 79.7232 226.574 79.2639 227.121 78.8657V78.8657Z" fill="black"/>
<path opacity="0.1" d="M214.293 131.265C215.896 136.093 223.913 127.587 224.143 123.911C224.289 121.558 226.875 112.335 228.716 105.997C228.195 104.21 227.427 102.504 226.433 100.931C226.13 100.447 225.835 99.9119 225.551 99.3387C224.682 101.482 221.192 110.268 221.395 112.881C221.625 115.87 220.019 120.235 220.019 120.235C220.019 120.235 212.69 126.438 214.293 131.265Z" fill="black"/>
<path d="M232.617 66.2249C232.617 66.2249 235.138 67.8332 232.617 83.2314L231.014 99.7788C231.014 99.7788 224.831 120.233 224.6 123.911C224.37 127.59 216.356 136.09 214.751 131.265C213.145 126.44 220.477 120.233 220.477 120.233C220.477 120.233 222.08 115.867 221.852 112.879C221.625 109.89 226.203 98.8605 226.203 98.8605C226.203 98.8605 226.433 78.6375 225.746 76.1082C225.058 73.579 232.617 66.2249 232.617 66.2249Z" fill="#FDC2CC"/>
<path opacity="0.1" d="M198.72 64.3857C198.72 64.3857 195.742 65.0757 198.72 80.474L200.553 97.2523C200.553 97.2523 204.676 121.385 204.446 124.148C204.216 126.91 213.381 134.031 214.066 130.124C214.751 126.218 209.485 119.782 209.485 119.782C209.485 119.782 207.189 114.718 207.189 105.294L206.731 97.7087L203.528 70.3624L198.72 64.3857Z" fill="black"/>
<path d="M198.254 64.3857C198.254 64.3857 195.276 65.0757 198.254 80.474L200.087 97.2523C200.087 97.2523 204.21 121.385 203.98 124.148C203.75 126.91 212.915 134.031 213.6 130.124C214.285 126.218 209.019 119.782 209.019 119.782C209.019 119.782 206.728 114.726 206.728 105.302L206.271 97.7168L203.071 70.3624L198.254 64.3857Z" fill="#FDC2CC"/>
<path opacity="0.1" d="M196.773 65.1898C196.773 65.1898 195.398 72.5439 205.017 75.0731C214.637 77.6024 203.872 66.3363 203.872 66.3363C203.872 66.3363 200.209 60.8241 196.773 65.1898Z" fill="black"/>
<path d="M197 64.9616C197 64.9616 195.628 72.313 205.247 74.8422C214.867 77.3715 204.102 66.108 204.102 66.108C204.102 66.108 200.436 60.5931 197 64.9616Z" fill="#D39999"/>
<path opacity="0.1" d="M233.649 65.1898C233.649 65.1898 235.024 72.5439 225.405 75.0731C215.785 77.6024 226.547 66.3363 226.547 66.3363C226.547 66.3363 230.202 60.8241 233.649 65.1898Z" fill="black"/>
<path d="M233.419 64.9616C233.419 64.9616 234.805 72.313 225.174 74.8422C215.544 77.3715 226.32 66.108 226.32 66.108C226.32 66.108 229.983 60.5931 233.419 64.9616Z" fill="#D39999"/>
<path opacity="0.1" d="M212.753 53.0842C214.017 53.4537 215.433 50.4816 216.927 50.4816C218.511 50.4816 220.003 53.6629 221.324 52.9891C221.71 50.8468 222.269 48.7397 222.998 46.6891L212.804 47.5911C213.221 49.3651 213.075 51.3428 212.753 53.0842Z" fill="black"/>
<path d="M217.158 53.5841C222.533 53.5841 226.891 49.2115 226.891 43.8176C226.891 38.4237 222.533 34.0511 217.158 34.0511C211.782 34.0511 207.424 38.4237 207.424 43.8176C207.424 49.2115 211.782 53.5841 217.158 53.5841Z" fill="#FDC2CC"/>
<path opacity="0.1" d="M204.438 39.6013C205.115 40.5575 206.182 41.2313 207.175 41.9594C208.403 42.8422 209.564 43.8166 210.646 44.8744C211.411 45.5756 212.065 46.3889 212.587 47.2868C213.359 48.7321 213.462 50.3675 213.554 51.9595L214.499 68.4037C214.561 69.4903 214.623 70.6015 214.347 71.6637C214.067 72.5687 213.673 73.4342 213.175 74.2391C211.927 76.4614 210.643 78.7271 208.634 80.4875C207.963 81.0716 207.145 81.8269 207.5 82.593C207.787 83.2097 208.67 83.408 209.428 83.4976C212.609 83.9269 216.134 84.2936 218.812 82.7369C219.822 82.1501 220.658 81.308 221.79 80.9439C223.366 80.4413 225.104 80.9657 226.783 80.9629C228.564 80.9629 230.264 80.368 231.927 79.7812C232.246 79.7003 232.538 79.5352 232.772 79.303C232.904 79.11 232.987 78.8869 233.012 78.6538C233.264 77.3199 233.503 75.9371 233.091 74.6303C232.644 73.2149 231.467 71.9897 231.334 70.5281C231.161 68.496 233.029 66.8416 234.372 65.1708C237.231 61.6146 237.867 56.4937 234.932 52.9864C233.419 51.1771 232.945 49.2265 231.637 47.3004C230.44 45.5372 230.213 43.4209 229.926 41.3889C229.569 38.8626 229.079 36.357 228.459 33.8826C228.277 33.1545 227.267 32.709 226.766 32.1032C225.797 30.935 222.976 30.9758 221.351 30.715C218.617 30.2803 215.666 29.8728 213.167 30.9513C211.434 31.7011 210.189 33.0703 208.835 34.2738C206.918 35.9908 202.267 36.5287 204.438 39.6013Z" fill="black"/>
<path d="M204.668 39.1421C205.345 40.0984 206.412 40.7722 207.405 41.5002C208.634 42.3848 209.794 43.361 210.876 44.4207C211.641 45.1219 212.295 45.9353 212.817 46.8331C213.589 48.2784 213.692 49.9138 213.784 51.5058L214.737 67.9446C214.799 69.0312 214.862 70.1424 214.585 71.2046C214.305 72.1096 213.912 72.9751 213.413 73.78C212.165 76.0023 210.882 78.268 208.873 80.0284C208.201 80.6125 207.384 81.3677 207.738 82.1338C208.025 82.7505 208.908 82.9489 209.666 83.0385C212.847 83.4677 216.372 83.8345 219.05 82.2778C220.06 81.691 220.897 80.8488 222.028 80.4848C223.604 79.9822 225.342 80.5065 227.021 80.5038C228.802 80.5038 230.503 79.9089 232.165 79.3221C232.484 79.2412 232.776 79.0761 233.01 78.8439C233.142 78.6509 233.225 78.4278 233.251 78.1946C233.503 76.8607 233.741 75.4779 233.329 74.1712C232.883 72.7558 231.705 71.5306 231.572 70.069C231.399 68.0369 233.267 66.3824 234.61 64.7117C237.469 61.1555 238.105 56.0346 235.17 52.5273C233.657 50.718 233.183 48.7674 231.875 46.8413C230.679 45.0781 230.451 42.9618 230.164 40.9297C229.807 38.4035 229.317 35.8979 228.697 33.4235C228.515 32.6954 227.506 32.2499 227.005 31.6441C226.035 30.4759 223.214 30.5166 221.59 30.2558C218.855 29.8212 215.904 29.4137 213.405 30.4922C211.672 31.242 210.427 32.6112 209.073 33.8147C207.135 35.5317 202.497 36.0696 204.668 39.1421Z" fill="#865A61"/>
</g>
<defs>
<linearGradient id="paint0_linear" x1="146" y1="180.701" x2="146" y2="37.3301" gradientUnits="userSpaceOnUse">
<stop stop-color="#808080" stop-opacity="0.25"/>
<stop offset="0.54" stop-color="#808080" stop-opacity="0.12"/>
<stop offset="1" stop-color="#808080" stop-opacity="0.1"/>
</linearGradient>
<linearGradient id="paint1_linear" x1="-37653.8" y1="141709" x2="-37653.8" y2="28822.6" gradientUnits="userSpaceOnUse">
<stop stop-color="#808080" stop-opacity="0.25"/>
<stop offset="0.54" stop-color="#808080" stop-opacity="0.12"/>
<stop offset="1" stop-color="#808080" stop-opacity="0.1"/>
</linearGradient>
<clipPath id="clip0">
<rect width="292" height="212" fill="white"/>
</clipPath>
</defs>
</svg>
